<svg viewBox="0 0 200 200" xmlns="http://www.w3.org/2000/svg">
    <defs>
        <linearGradient id="historyGradient" x1="0%" y1="0%" x2="100%" y2="100%">
            <stop offset="0%" style="stop-color:#e17055;stop-opacity:1" />
            <stop offset="100%" style="stop-color:#fdcb6e;stop-opacity:1" />
        </linearGradient>
    </defs>
    <circle cx="100" cy="100" r="90" fill="url(#historyGradient)" opacity="0.1"/>
    <g transform="translate(100,100)">
        <polygon points="-20,-30 20,-30 15,-10 -15,-10" fill="url(#historyGradient)" opacity="0.7"/>
        <rect x="-15" y="-10" width="30" height="40" fill="url(#historyGradient)" opacity="0.5"/>
        <g fill="#2d3436" opacity="0.8">
            <rect x="-12" y="-5" width="4" height="25"/>
            <rect x="-4" y="-5" width="4" height="25"/>
            <rect x="4" y="-5" width="4" height="25"/>
            <rect x="12" y="-5" width="4" height="25"/>
        </g>
        <circle cx="0" cy="-35" r="8" fill="#feca57">
            <animate attributeName="fill" values="#feca57;#fdcb6e;#feca57" dur="3s" repeatCount="indefinite"/>
        </circle>
        <g opacity="0.6">
            <circle cx="-25" cy="0" r="3" fill="#ff6b6b">
                <animate attributeName="r" values="3;5;3" dur="2s" repeatCount="indefinite"/>
            </circle>
            <circle cx="25" cy="0" r="3" fill="#4ecdc4">
                <animate attributeName="r" values="3;5;3" dur="2.5s" repeatCount="indefinite"/>
            </circle>
        </g>
        <path d="M -30 30 L 30 30" stroke="url(#historyGradient)" stroke-width="3" opacity="0.7"/>
        <g transform="translate(0,35)">
            <rect x="-5" y="0" width="10" height="8" fill="url(#historyGradient)" opacity="0.6"/>
            <rect x="-3" y="2" width="6" height="4" fill="#2d3436" opacity="0.3"/>
        </g>
    </g>
    <circle cx="100" cy="100" r="85" fill="none" stroke="url(#historyGradient)" stroke-width="1" opacity="0.3" stroke-dasharray="4,4">
        <animate attributeName="stroke-dashoffset" values="0;8" dur="2s" repeatCount="indefinite"/>
    </circle>
</svg>