<svg viewBox="0 0 200 200" xmlns="http://www.w3.org/2000/svg">
  <defs>
    <linearGradient id="leafGradient" x1="0%" y1="0%" x2="100%" y2="100%">
      <stop offset="0%" style="stop-color:#00b894;stop-opacity:1" />
      <stop offset="100%" style="stop-color:#55a3ff;stop-opacity:1" />
    </linearGradient>
    <linearGradient id="butterflyGradient" x1="0%" y1="0%" x2="100%" y2="100%">
      <stop offset="0%" style="stop-color:#fd79a8;stop-opacity:1" />
      <stop offset="100%" style="stop-color:#fdcb6e;stop-opacity:1" />
    </linearGradient>
    <linearGradient id="pawGradient" x1="0%" y1="0%" x2="100%" y2="100%">
      <stop offset="0%" style="stop-color:#e17055;stop-opacity:1" />
      <stop offset="100%" style="stop-color:#d63031;stop-opacity:1" />
    </linearGradient>
  </defs>
  
  <!-- Background circle with nature theme -->
  <circle cx="100" cy="100" r="90" fill="url(#leafGradient)" opacity="0.1"/>
  
  <!-- Tree/branch -->
  <g opacity="0.6">
    <path d="M 50 180 Q 60 150 70 120 Q 80 100 90 80" stroke="url(#leafGradient)" stroke-width="4" fill="none" stroke-linecap="round"/>
    <path d="M 90 80 Q 100 70 110 65" stroke="url(#leafGradient)" stroke-width="3" fill="none" stroke-linecap="round"/>
    <path d="M 90 80 Q 85 70 80 60" stroke="url(#leafGradient)" stroke-width="3" fill="none" stroke-linecap="round"/>
  </g>
  
  <!-- Leaves -->
  <g opacity="0.8">
    <ellipse cx="110" cy="65" rx="8" ry="4" fill="url(#leafGradient)" transform="rotate(30 110 65)"/>
    <ellipse cx="80" cy="60" rx="6" ry="3" fill="url(#leafGradient)" transform="rotate(-20 80 60)"/>
    <ellipse cx="75" cy="110" rx="7" ry="4" fill="url(#leafGradient)" transform="rotate(45 75 110)"/>
  </g>
  
  <!-- Butterfly -->
  <g transform="translate(130,90)">
    <!-- Butterfly body -->
    <ellipse cx="0" cy="0" rx="1.5" ry="12" fill="#333"/>
    <!-- Butterfly wings -->
    <ellipse cx="-6" cy="-4" rx="8" ry="6" fill="url(#butterflyGradient)" transform="rotate(-20)">
      <animate attributeName="transform" values="rotate(-20);rotate(-30);rotate(-20)" dur="1s" repeatCount="indefinite"/>
    </ellipse>
    <ellipse cx="6" cy="-4" rx="8" ry="6" fill="url(#butterflyGradient)" transform="rotate(20)">
      <animate attributeName="transform" values="rotate(20);rotate(30);rotate(20)" dur="1s" repeatCount="indefinite"/>
    </ellipse>
    <ellipse cx="-4" cy="4" rx="5" ry="4" fill="url(#butterflyGradient)" transform="rotate(-10)">
      <animate attributeName="transform" values="rotate(-10);rotate(-20);rotate(-10)" dur="1s" repeatCount="indefinite"/>
    </ellipse>
    <ellipse cx="4" cy="4" rx="5" ry="4" fill="url(#butterflyGradient)" transform="rotate(10)">
      <animate attributeName="transform" values="rotate(10);rotate(20);rotate(10)" dur="1s" repeatCount="indefinite"/>
    </ellipse>
    <!-- Wing patterns -->
    <circle cx="-6" cy="-4" r="2" fill="#fff" opacity="0.7"/>
    <circle cx="6" cy="-4" r="2" fill="#fff" opacity="0.7"/>
    <!-- Antennae -->
    <path d="M -1 -6 Q -3 -10 -2 -12" stroke="#333" stroke-width="1" fill="none"/>
    <path d="M 1 -6 Q 3 -10 2 -12" stroke="#333" stroke-width="1" fill="none"/>
    <circle cx="-2" cy="-12" r="1" fill="#333"/>
    <circle cx="2" cy="-12" r="1" fill="#333"/>
  </g>
  
  <!-- Animal paw prints -->
  <g opacity="0.4">
    <g transform="translate(60,140)">
      <ellipse cx="0" cy="0" rx="4" ry="6" fill="url(#pawGradient)"/>
      <circle cx="-3" cy="-8" r="2" fill="url(#pawGradient)"/>
      <circle cx="3" cy="-8" r="2" fill="url(#pawGradient)"/>
      <circle cx="-1" cy="-10" r="1.5" fill="url(#pawGradient)"/>
      <circle cx="1" cy="-10" r="1.5" fill="url(#pawGradient)"/>
    </g>
    <g transform="translate(80,160) rotate(15)">
      <ellipse cx="0" cy="0" rx="3" ry="5" fill="url(#pawGradient)"/>
      <circle cx="-2" cy="-6" r="1.5" fill="url(#pawGradient)"/>
      <circle cx="2" cy="-6" r="1.5" fill="url(#pawGradient)"/>
      <circle cx="0" cy="-8" r="1" fill="url(#pawGradient)"/>
    </g>
  </g>
  
  <!-- Flower -->
  <g transform="translate(140,140)">
    <circle cx="0" cy="0" r="3" fill="#fdcb6e"/>
    <ellipse cx="0" cy="-8" rx="3" ry="6" fill="url(#butterflyGradient)" transform="rotate(0)"/>
    <ellipse cx="0" cy="-8" rx="3" ry="6" fill="url(#butterflyGradient)" transform="rotate(72)"/>
    <ellipse cx="0" cy="-8" rx="3" ry="6" fill="url(#butterflyGradient)" transform="rotate(144)"/>
    <ellipse cx="0" cy="-8" rx="3" ry="6" fill="url(#butterflyGradient)" transform="rotate(216)"/>
    <ellipse cx="0" cy="-8" rx="3" ry="6" fill="url(#butterflyGradient)" transform="rotate(288)"/>
  </g>
  
  <!-- Floating particles/pollen -->
  <g opacity="0.6">
    <circle cx="40" cy="80" r="1" fill="#fdcb6e">
      <animate attributeName="cy" values="80;60;80" dur="3s" repeatCount="indefinite"/>
    </circle>
    <circle cx="160" cy="120" r="1.5" fill="#fd79a8">
      <animate attributeName="cy" values="120;100;120" dur="4s" repeatCount="indefinite"/>
    </circle>
    <circle cx="120" cy="50" r="1" fill="#00b894">
      <animate attributeName="cy" values="50;30;50" dur="2.5s" repeatCount="indefinite"/>
    </circle>
  </g>
</svg>