<svg viewBox="0 0 200 200" xmlns="http://www.w3.org/2000/svg">
    <defs>
        <linearGradient id="animalGradient" x1="0%" y1="0%" x2="100%" y2="100%">
            <stop offset="0%" style="stop-color:#00b894;stop-opacity:1" />
            <stop offset="100%" style="stop-color:#00cec9;stop-opacity:1" />
        </linearGradient>
    </defs>
    <circle cx="100" cy="100" r="90" fill="url(#animalGradient)" opacity="0.1"/>
    <g transform="translate(100,100)">
        <ellipse cx="0" cy="0" rx="20" ry="15" fill="#feca57">
            <animateTransform attributeName="transform" type="scale" values="1;1.1;1" dur="2s" repeatCount="indefinite"/>
        </ellipse>
        <circle cx="-6" cy="-5" r="2" fill="#2d3436"/>
        <circle cx="6" cy="-5" r="2" fill="#2d3436"/>
        <ellipse cx="0" cy="2" rx="3" ry="2" fill="#e17055"/>
        <ellipse cx="-15" cy="-10" rx="5" ry="8" fill="#feca57"/>
        <ellipse cx="15" cy="-10" rx="5" ry="8" fill="#feca57"/>
        <path d="M -8 8 Q 0 12 8 8" stroke="#2d3436" stroke-width="2" fill="none">
            <animate attributeName="stroke-opacity" values="0.5;1;0.5" dur="2s" repeatCount="indefinite"/>
        </path>
        <g transform="translate(-25,25)">
            <ellipse cx="0" cy="0" rx="8" ry="6" fill="#fd79a8">
                <animateTransform attributeName="transform" type="rotate" values="0;10;-10;0" dur="3s" repeatCount="indefinite"/>
            </ellipse>
            <circle cx="-2" cy="-2" r="1" fill="#2d3436"/>
            <circle cx="2" cy="-2" r="1" fill="#2d3436"/>
        </g>
        <g transform="translate(25,25)">
            <ellipse cx="0" cy="0" rx="6" ry="8" fill="#74b9ff">
                <animateTransform attributeName="transform" type="rotate" values="0;-15;15;0" dur="2.5s" repeatCount="indefinite"/>
            </ellipse>
            <circle cx="-1" cy="-3" r="1" fill="#2d3436"/>
            <circle cx="1" cy="-3" r="1" fill="#2d3436"/>
        </g>
    </g>
    <circle cx="100" cy="100" r="85" fill="none" stroke="url(#animalGradient)" stroke-width="1" opacity="0.3" stroke-dasharray="4,4">
        <animate attributeName="stroke-dashoffset" values="0;8" dur="2s" repeatCount="indefinite"/>
    </circle>
</svg>