<svg viewBox="0 0 200 200" xmlns="http://www.w3.org/2000/svg">
    <defs>
        <linearGradient id="breakoutGradient" x1="0%" y1="0%" x2="100%" y2="100%">
            <stop offset="0%" style="stop-color:#00b894;stop-opacity:1" />
            <stop offset="100%" style="stop-color:#00cec9;stop-opacity:1" />
        </linearGradient>
    </defs>
    <circle cx="100" cy="100" r="90" fill="url(#breakoutGradient)" opacity="0.1"/>
    <g transform="translate(100,100)">
        <g fill="url(#breakoutGradient)" opacity="0.8">
            <rect x="-35" y="-35" width="12" height="6"/>
            <rect x="-20" y="-35" width="12" height="6"/>
            <rect x="-5" y="-35" width="12" height="6"/>
            <rect x="10" y="-35" width="12" height="6"/>
            <rect x="25" y="-35" width="12" height="6"/>
            <rect x="-35" y="-25" width="12" height="6"/>
            <rect x="-20" y="-25" width="12" height="6"/>
            <rect x="-5" y="-25" width="12" height="6"/>
            <rect x="10" y="-25" width="12" height="6"/>
            <rect x="25" y="-25" width="12" height="6"/>
        </g>
        <circle cx="0" cy="10" r="4" fill="#ff6b6b">
            <animateTransform attributeName="transform" type="translate" values="0,0; 15,-10; -15,5; 0,0" dur="2s" repeatCount="indefinite"/>
        </circle>
        <rect x="-15" y="25" width="30" height="6" rx="3" fill="url(#breakoutGradient)">
            <animateTransform attributeName="transform" type="translate" values="0,0; 5,0; -5,0; 0,0" dur="3s" repeatCount="indefinite"/>
        </rect>
        <g opacity="0.5">
            <circle cx="-25" cy="0" r="2" fill="#feca57">
                <animate attributeName="opacity" values="0.5;1;0.5" dur="1.5s" repeatCount="indefinite"/>
            </circle>
            <circle cx="25" cy="5" r="2" fill="#fd79a8">
                <animate attributeName="opacity" values="0.5;1;0.5" dur="2s" repeatCount="indefinite"/>
            </circle>
        </g>
    </g>
    <circle cx="100" cy="100" r="85" fill="none" stroke="url(#breakoutGradient)" stroke-width="1" opacity="0.3" stroke-dasharray="4,4">
        <animate attributeName="stroke-dashoffset" values="0;8" dur="2s" repeatCount="indefinite"/>
    </circle>
</svg>