<svg viewBox="0 0 200 200" xmlns="http://www.w3.org/2000/svg">
    <defs>
        <linearGradient id="chessGradient" x1="0%" y1="0%" x2="100%" y2="100%">
            <stop offset="0%" style="stop-color:#2d3436;stop-opacity:1" />
            <stop offset="100%" style="stop-color:#636e72;stop-opacity:1" />
        </linearGradient>
    </defs>
    <circle cx="100" cy="100" r="90" fill="url(#chessGradient)" opacity="0.1"/>
    <g transform="translate(100,100)">
        <rect x="-40" y="-40" width="80" height="80" fill="none" stroke="url(#chessGradient)" stroke-width="3"/>
        <g fill="url(#chessGradient)" opacity="0.3">
            <rect x="-40" y="-40" width="20" height="20"/>
            <rect x="-20" y="-20" width="20" height="20"/>
            <rect x="0" y="-40" width="20" height="20"/>
            <rect x="20" y="-20" width="20" height="20"/>
            <rect x="-40" y="0" width="20" height="20"/>
            <rect x="-20" y="20" width="20" height="20"/>
            <rect x="0" y="0" width="20" height="20"/>
            <rect x="20" y="20" width="20" height="20"/>
        </g>
        <g transform="translate(-25,-25)">
            <path d="M 0 15 L 0 5 Q 0 0 5 0 Q 10 0 10 5 L 10 15 Q 5 20 0 15" fill="#2d3436">
                <animate attributeName="fill" values="#2d3436;#636e72;#2d3436" dur="3s" repeatCount="indefinite"/>
            </path>
            <circle cx="5" cy="2" r="3" fill="#2d3436"/>
        </g>
        <g transform="translate(25,25)">
            <path d="M 0 15 L 0 10 L 3 8 L 7 8 L 10 10 L 10 15 Q 5 20 0 15" fill="#fff" stroke="#2d3436" stroke-width="1">
                <animate attributeName="fill" values="#fff;#f0f0f0;#fff" dur="2.5s" repeatCount="indefinite"/>
            </path>
            <polygon points="2,8 8,8 5,3" fill="#fff" stroke="#2d3436" stroke-width="1"/>
        </g>
    </g>
    <circle cx="100" cy="100" r="85" fill="none" stroke="url(#chessGradient)" stroke-width="1" opacity="0.3" stroke-dasharray="4,4">
        <animate attributeName="stroke-dashoffset" values="0;8" dur="2s" repeatCount="indefinite"/>
    </circle>
</svg>