<svg viewBox="0 0 200 200" xmlns="http://www.w3.org/2000/svg">
  <defs>
    <linearGradient id="boardGradient" x1="0%" y1="0%" x2="100%" y2="100%">
      <stop offset="0%" style="stop-color:#667eea;stop-opacity:1" />
      <stop offset="100%" style="stop-color:#764ba2;stop-opacity:1" />
    </linearGradient>
    <linearGradient id="redPiece" x1="0%" y1="0%" x2="100%" y2="100%">
      <stop offset="0%" style="stop-color:#ff6b6b;stop-opacity:1" />
      <stop offset="100%" style="stop-color:#ee5a52;stop-opacity:1" />
    </linearGradient>
    <linearGradient id="yellowPiece" x1="0%" y1="0%" x2="100%" y2="100%">
      <stop offset="0%" style="stop-color:#feca57;stop-opacity:1" />
      <stop offset="100%" style="stop-color:#ff9ff3;stop-opacity:1" />
    </linearGradient>
  </defs>
  
  <!-- Background circle -->
  <circle cx="100" cy="100" r="90" fill="none" stroke="url(#boardGradient)" stroke-width="2" opacity="0.1"/>
  
  <!-- Connect 4 board -->
  <rect x="40" y="50" width="120" height="100" rx="8" fill="none" stroke="url(#boardGradient)" stroke-width="3"/>
  
  <!-- Board holes (grid) -->
  <g opacity="0.3">
    <circle cx="55" cy="65" r="6" fill="none" stroke="url(#boardGradient)" stroke-width="1"/>
    <circle cx="75" cy="65" r="6" fill="none" stroke="url(#boardGradient)" stroke-width="1"/>
    <circle cx="95" cy="65" r="6" fill="none" stroke="url(#boardGradient)" stroke-width="1"/>
    <circle cx="115" cy="65" r="6" fill="none" stroke="url(#boardGradient)" stroke-width="1"/>
    <circle cx="135" cy="65" r="6" fill="none" stroke="url(#boardGradient)" stroke-width="1"/>
    <circle cx="145" cy="65" r="6" fill="none" stroke="url(#boardGradient)" stroke-width="1"/>
    
    <circle cx="55" cy="85" r="6" fill="none" stroke="url(#boardGradient)" stroke-width="1"/>
    <circle cx="75" cy="85" r="6" fill="none" stroke="url(#boardGradient)" stroke-width="1"/>
    <circle cx="95" cy="85" r="6" fill="none" stroke="url(#boardGradient)" stroke-width="1"/>
    <circle cx="115" cy="85" r="6" fill="none" stroke="url(#boardGradient)" stroke-width="1"/>
    <circle cx="135" cy="85" r="6" fill="none" stroke="url(#boardGradient)" stroke-width="1"/>
    <circle cx="145" cy="85" r="6" fill="none" stroke="url(#boardGradient)" stroke-width="1"/>
  </g>
  
  <!-- Game pieces -->
  <circle cx="55" cy="125" r="8" fill="url(#redPiece)"/>
  <circle cx="75" cy="125" r="8" fill="url(#yellowPiece)"/>
  <circle cx="95" cy="125" r="8" fill="url(#redPiece)"/>
  <circle cx="115" cy="125" r="8" fill="url(#redPiece)"/>
  
  <circle cx="55" cy="105" r="8" fill="url(#yellowPiece)"/>
  <circle cx="75" cy="105" r="8" fill="url(#redPiece)"/>
  <circle cx="95" cy="105" r="8" fill="url(#yellowPiece)"/>
  
  <!-- Winning line highlight -->
  <line x1="50" y1="125" x2="120" y2="125" stroke="url(#redPiece)" stroke-width="3" opacity="0.7" stroke-linecap="round"/>
  
  <!-- Floating piece (being dropped) -->
  <circle cx="135" cy="35" r="8" fill="url(#yellowPiece)" opacity="0.8">
    <animate attributeName="cy" values="35;45;35" dur="2s" repeatCount="indefinite"/>
  </circle>
</svg>