<svg viewBox="0 0 200 200" xmlns="http://www.w3.org/2000/svg">
    <defs>
        <linearGradient id="foodGradient" x1="0%" y1="0%" x2="100%" y2="100%">
            <stop offset="0%" style="stop-color:#e17055;stop-opacity:1" />
            <stop offset="100%" style="stop-color:#fdcb6e;stop-opacity:1" />
        </linearGradient>
    </defs>
    <circle cx="100" cy="100" r="90" fill="url(#foodGradient)" opacity="0.1"/>
    <g transform="translate(100,100)">
        <ellipse cx="0" cy="10" rx="25" ry="15" fill="url(#foodGradient)" opacity="0.7"/>
        <ellipse cx="0" cy="5" rx="20" ry="12" fill="#feca57"/>
        <circle cx="-10" cy="0" r="4" fill="#e17055">
            <animate attributeName="fill" values="#e17055;#ff6b6b;#e17055" dur="2s" repeatCount="indefinite"/>
        </circle>
        <circle cx="0" cy="-2" r="3" fill="#00b894">
            <animate attributeName="fill" values="#00b894;#4ecdc4;#00b894" dur="2.5s" repeatCount="indefinite"/>
        </circle>
        <circle cx="8" cy="2" r="3" fill="#fd79a8">
            <animate attributeName="fill" values="#fd79a8;#a29bfe;#fd79a8" dur="1.8s" repeatCount="indefinite"/>
        </circle>
        <g transform="translate(-20,-20)">
            <rect x="0" y="0" width="3" height="15" fill="#00b894"/>
            <ellipse cx="1.5" cy="-3" rx="4" ry="2" fill="#00b894"/>
        </g>
        <g transform="translate(20,-20)">
            <rect x="0" y="0" width="2" height="12" fill="#636e72"/>
            <rect x="-3" y="0" width="8" height="2" fill="#636e72"/>
            <rect x="-2" y="2" width="6" height="1" fill="#636e72"/>
            <rect x="-1" y="3" width="4" height="1" fill="#636e72"/>
        </g>
        <g opacity="0.6">
            <circle cx="-30" cy="20" r="2" fill="#feca57">
                <animate attributeName="r" values="2;4;2" dur="2s" repeatCount="indefinite"/>
            </circle>
            <circle cx="30" cy="20" r="2" fill="#ff6b6b">
                <animate attributeName="r" values="2;4;2" dur="2.3s" repeatCount="indefinite"/>
            </circle>
        </g>
    </g>
    <circle cx="100" cy="100" r="85" fill="none" stroke="url(#foodGradient)" stroke-width="1" opacity="0.3" stroke-dasharray="5,5">
        <animate attributeName="stroke-dashoffset" values="0;10" dur="2s" repeatCount="indefinite"/>
    </circle>
</svg>