<svg xmlns="http://www.w3.org/2000/svg" viewBox="0 0 100 100" width="100" height="100">
  <defs>
    <linearGradient id="bulbGradient" x1="0%" y1="0%" x2="100%" y2="100%">
      <stop offset="0%" style="stop-color:#f39c12;stop-opacity:1" />
      <stop offset="100%" style="stop-color:#e67e22;stop-opacity:1" />
    </linearGradient>
    <radialGradient id="glowGradient" cx="50%" cy="30%" r="60%">
      <stop offset="0%" style="stop-color:#fff;stop-opacity:0.8" />
      <stop offset="100%" style="stop-color:#fff;stop-opacity:0" />
    </radialGradient>
  </defs>
  
  <!-- Background -->
  <rect width="100" height="100" fill="#2c3e50"/>
  
  <!-- Light bulb -->
  <g transform="translate(50,45)">
    <!-- Bulb glass -->
    <circle cx="0" cy="-10" r="18" fill="url(#bulbGradient)" stroke="#d35400" stroke-width="1"/>
    <!-- Filament -->
    <path d="M-8,-18 Q0,-12 8,-18 M-8,-8 Q0,-2 8,-8 M-8,-14 Q0,-8 8,-14" stroke="#c0392b" stroke-width="1.5" fill="none"/>
    <!-- Base -->
    <rect x="-8" y="8" width="16" height="8" fill="#95a5a6" rx="2"/>
    <rect x="-6" y="10" width="12" height="1" fill="#7f8c8d"/>
    <rect x="-6" y="12" width="12" height="1" fill="#7f8c8d"/>
    <rect x="-6" y="14" width="12" height="1" fill="#7f8c8d"/>
    <!-- Glow effect -->
    <circle cx="0" cy="-10" r="18" fill="url(#glowGradient)"/>
  </g>
  
  <!-- Gear 1 -->
  <g transform="translate(25,25)">
    <circle cx="0" cy="0" r="8" fill="#34495e" stroke="#2c3e50" stroke-width="1"/>
    <circle cx="0" cy="0" r="4" fill="#95a5a6"/>
    <!-- Gear teeth -->
    <g stroke="#2c3e50" stroke-width="1" fill="#34495e">
      <rect x="-1" y="-10" width="2" height="4"/>
      <rect x="-1" y="6" width="2" height="4"/>
      <rect x="-10" y="-1" width="4" height="2"/>
      <rect x="6" y="-1" width="4" height="2"/>
      <rect x="-7" y="-7" width="3" height="3" transform="rotate(45)"/>
      <rect x="4" y="-7" width="3" height="3" transform="rotate(45)"/>
      <rect x="-7" y="4" width="3" height="3" transform="rotate(45)"/>
      <rect x="4" y="4" width="3" height="3" transform="rotate(45)"/>
    </g>
  </g>
  
  <!-- Gear 2 -->
  <g transform="translate(75,75)">
    <circle cx="0" cy="0" r="6" fill="#e74c3c" stroke="#c0392b" stroke-width="1"/>
    <circle cx="0" cy="0" r="3" fill="#95a5a6"/>
    <!-- Gear teeth -->
    <g stroke="#c0392b" stroke-width="1" fill="#e74c3c">
      <rect x="-0.8" y="-8" width="1.6" height="3"/>
      <rect x="-0.8" y="5" width="1.6" height="3"/>
      <rect x="-8" y="-0.8" width="3" height="1.6"/>
      <rect x="5" y="-0.8" width="3" height="1.6"/>
    </g>
  </g>
  
  <!-- Wrench -->
  <g transform="translate(20,70) rotate(-30)">
    <rect x="-1" y="-8" width="2" height="16" fill="#95a5a6"/>
    <circle cx="0" cy="-8" r="3" fill="#7f8c8d" stroke="#95a5a6" stroke-width="1"/>
    <rect x="-2" y="6" width="4" height="4" fill="#7f8c8d"/>
  </g>
  
  <!-- Screwdriver -->
  <g transform="translate(80,25) rotate(45)">
    <rect x="-0.5" y="-10" width="1" height="12" fill="#95a5a6"/>
    <rect x="-1.5" y="2" width="3" height="6" fill="#e74c3c"/>
    <circle cx="0" cy="5" r="1.5" fill="#c0392b"/>
  </g>
  
  <!-- Innovation sparks -->
  <g fill="#f1c40f" opacity="0.8">
    <polygon points="15,15 17,19 21,17 19,21 23,23 19,21 17,25 15,21 11,23 15,19 13,15 17,17"/>
    <polygon points="85,15 86,17 88,16 87,18 89,19 87,18 86,20 85,18 83,19 85,17 84,15 86,16"/>
    <polygon points="15,85 16,87 18,86 17,88 19,89 17,88 16,90 15,88 13,89 15,87 14,85 16,86"/>
  </g>
  
  <!-- Circuit lines -->
  <g stroke="#3498db" stroke-width="1.5" fill="none" opacity="0.6">
    <path d="M35,35 L45,35 L45,25 L55,25"/>
    <path d="M65,55 L75,55 L75,65"/>
    <circle cx="45" cy="35" r="1.5" fill="#3498db"/>
    <circle cx="55" cy="25" r="1.5" fill="#3498db"/>
    <circle cx="75" cy="55" r="1.5" fill="#3498db"/>
  </g>
</svg>