<svg xmlns="http://www.w3.org/2000/svg" viewBox="0 0 200 200">
  <defs>
    <linearGradient id="artGrad" x1="0%" y1="0%" x2="100%" y2="100%">
      <stop offset="0%" style="stop-color:#9370DB;stop-opacity:1" />
      <stop offset="100%" style="stop-color:#663399;stop-opacity:1" />
    </linearGradient>
  </defs>
  
  <!-- Background circle -->
  <circle cx="100" cy="100" r="90" fill="url(#artGrad)" stroke="#4B0082" stroke-width="3"/>
  
  <!-- Open book -->
  <path d="M60,80 Q100,70 140,80 L140,140 Q100,130 60,140 Z" fill="#F5F5DC" stroke="#8B4513" stroke-width="2"/>
  <line x1="100" y1="75" x2="100" y2="135" stroke="#8B4513" stroke-width="2"/>
  
  <!-- Book pages -->
  <line x1="70" y1="90" x2="95" y2="90" stroke="#696969" stroke-width="1"/>
  <line x1="70" y1="95" x2="95" y2="95" stroke="#696969" stroke-width="1"/>
  <line x1="70" y1="100" x2="95" y2="100" stroke="#696969" stroke-width="1"/>
  <line x1="70" y1="105" x2="95" y2="105" stroke="#696969" stroke-width="1"/>
  
  <line x1="105" y1="90" x2="130" y2="90" stroke="#696969" stroke-width="1"/>
  <line x1="105" y1="95" x2="130" y2="95" stroke="#696969" stroke-width="1"/>
  <line x1="105" y1="100" x2="130" y2="100" stroke="#696969" stroke-width="1"/>
  <line x1="105" y1="105" x2="130" y2="105" stroke="#696969" stroke-width="1"/>
  
  <!-- Quill pen -->
  <line x1="130" y1="60" x2="150" y2="40" stroke="#8B4513" stroke-width="3"/>
  <path d="M145,45 Q150,40 155,45 Q150,50 145,45" fill="#FFD700"/>
  
  <!-- Ink well -->
  <circle cx="160" cy="70" r="8" fill="#2F4F4F" stroke="#000" stroke-width="2"/>
  <circle cx="160" cy="68" r="5" fill="#000"/>
  
  <!-- Paint palette -->
  <ellipse cx="70" cy="50" rx="20" ry="12" fill="#F5F5DC" stroke="#8B4513" stroke-width="2"/>
  <circle cx="65" cy="45" r="3" fill="#FF0000"/>
  <circle cx="75" cy="45" r="3" fill="#0000FF"/>
  <circle cx="70" cy="55" r="3" fill="#FFFF00"/>
  <circle cx="60" cy="55" r="3" fill="#00FF00"/>
  
  <!-- Paint brush -->
  <line x1="45" y1="65" x2="35" y2="75" stroke="#8B4513" stroke-width="3"/>
  <path d="M40,70 L35,75 L38,78 L43,73 Z" fill="#696969"/>
  
  <!-- Musical notes -->
  <circle cx="120" cy="160" r="4" fill="#000"/>
  <line x1="124" y1="160" x2="124" y2="145" stroke="#000" stroke-width="2"/>
  <path d="M124,145 Q130,140 135,145" stroke="#000" stroke-width="2" fill="none"/>
  
  <circle cx="140" cy="170" r="4" fill="#000"/>
  <line x1="144" y1="170" x2="144" y2="155" stroke="#000" stroke-width="2"/>
</svg>