<svg xmlns="http://www.w3.org/2000/svg" viewBox="0 0 100 100" width="100" height="100">
  <defs>
    <linearGradient id="minesweeperGrad" x1="0%" y1="0%" x2="100%" y2="100%">
      <stop offset="0%" style="stop-color:#607d8b;stop-opacity:1" />
      <stop offset="100%" style="stop-color:#455a64;stop-opacity:1" />
    </linearGradient>
  </defs>
  
  <!-- Background -->
  <rect width="100" height="100" fill="url(#minesweeperGrad)" rx="10"/>
  
  <!-- Minesweeper grid -->
  <g stroke="#37474f" stroke-width="1">
    <!-- Unrevealed cells (raised) -->
    <rect x="15" y="20" width="8" height="8" fill="#90a4ae" stroke="#cfd8dc" stroke-width="0.5"/>
    <rect x="23" y="20" width="8" height="8" fill="#90a4ae" stroke="#cfd8dc" stroke-width="0.5"/>
    <rect x="31" y="20" width="8" height="8" fill="#90a4ae" stroke="#cfd8dc" stroke-width="0.5"/>
    <rect x="39" y="20" width="8" height="8" fill="#90a4ae" stroke="#cfd8dc" stroke-width="0.5"/>
    <rect x="47" y="20" width="8" height="8" fill="#90a4ae" stroke="#cfd8dc" stroke-width="0.5"/>
    <rect x="55" y="20" width="8" height="8" fill="#90a4ae" stroke="#cfd8dc" stroke-width="0.5"/>
    <rect x="63" y="20" width="8" height="8" fill="#90a4ae" stroke="#cfd8dc" stroke-width="0.5"/>
    <rect x="71" y="20" width="8" height="8" fill="#90a4ae" stroke="#cfd8dc" stroke-width="0.5"/>
    
    <rect x="15" y="28" width="8" height="8" fill="#90a4ae" stroke="#cfd8dc" stroke-width="0.5"/>
    <rect x="23" y="28" width="8" height="8" fill="#90a4ae" stroke="#cfd8dc" stroke-width="0.5"/>
    <rect x="31" y="28" width="8" height="8" fill="#90a4ae" stroke="#cfd8dc" stroke-width="0.5"/>
    <rect x="39" y="28" width="8" height="8" fill="#90a4ae" stroke="#cfd8dc" stroke-width="0.5"/>
    <rect x="47" y="28" width="8" height="8" fill="#90a4ae" stroke="#cfd8dc" stroke-width="0.5"/>
    <rect x="55" y="28" width="8" height="8" fill="#90a4ae" stroke="#cfd8dc" stroke-width="0.5"/>
    <rect x="63" y="28" width="8" height="8" fill="#90a4ae" stroke="#cfd8dc" stroke-width="0.5"/>
    <rect x="71" y="28" width="8" height="8" fill="#90a4ae" stroke="#cfd8dc" stroke-width="0.5"/>
    
    <!-- Revealed cells -->
    <rect x="15" y="36" width="8" height="8" fill="#eceff1" stroke="#b0bec5" stroke-width="0.5"/>
    <rect x="23" y="36" width="8" height="8" fill="#eceff1" stroke="#b0bec5" stroke-width="0.5"/>
    <rect x="31" y="36" width="8" height="8" fill="#eceff1" stroke="#b0bec5" stroke-width="0.5"/>
    <rect x="39" y="36" width="8" height="8" fill="#eceff1" stroke="#b0bec5" stroke-width="0.5"/>
    <rect x="47" y="36" width="8" height="8" fill="#eceff1" stroke="#b0bec5" stroke-width="0.5"/>
    <rect x="55" y="36" width="8" height="8" fill="#eceff1" stroke="#b0bec5" stroke-width="0.5"/>
    <rect x="63" y="36" width="8" height="8" fill="#eceff1" stroke="#b0bec5" stroke-width="0.5"/>
    <rect x="71" y="36" width="8" height="8" fill="#eceff1" stroke="#b0bec5" stroke-width="0.5"/>
    
    <rect x="15" y="44" width="8" height="8" fill="#eceff1" stroke="#b0bec5" stroke-width="0.5"/>
    <rect x="23" y="44" width="8" height="8" fill="#eceff1" stroke="#b0bec5" stroke-width="0.5"/>
    <rect x="31" y="44" width="8" height="8" fill="#eceff1" stroke="#b0bec5" stroke-width="0.5"/>
    <rect x="39" y="44" width="8" height="8" fill="#eceff1" stroke="#b0bec5" stroke-width="0.5"/>
    <rect x="47" y="44" width="8" height="8" fill="#eceff1" stroke="#b0bec5" stroke-width="0.5"/>
    <rect x="55" y="44" width="8" height="8" fill="#eceff1" stroke="#b0bec5" stroke-width="0.5"/>
    <rect x="63" y="44" width="8" height="8" fill="#eceff1" stroke="#b0bec5" stroke-width="0.5"/>
    <rect x="71" y="44" width="8" height="8" fill="#eceff1" stroke="#b0bec5" stroke-width="0.5"/>
    
    <!-- Mine cell (exploded) -->
    <rect x="39" y="52" width="8" height="8" fill="#f44336" stroke="#d32f2f" stroke-width="0.5"/>
    
    <!-- More revealed cells -->
    <rect x="15" y="52" width="8" height="8" fill="#eceff1" stroke="#b0bec5" stroke-width="0.5"/>
    <rect x="23" y="52" width="8" height="8" fill="#eceff1" stroke="#b0bec5" stroke-width="0.5"/>
    <rect x="31" y="52" width="8" height="8" fill="#eceff1" stroke="#b0bec5" stroke-width="0.5"/>
    <rect x="47" y="52" width="8" height="8" fill="#eceff1" stroke="#b0bec5" stroke-width="0.5"/>
    <rect x="55" y="52" width="8" height="8" fill="#eceff1" stroke="#b0bec5" stroke-width="0.5"/>
    <rect x="63" y="52" width="8" height="8" fill="#eceff1" stroke="#b0bec5" stroke-width="0.5"/>
    <rect x="71" y="52" width="8" height="8" fill="#eceff1" stroke="#b0bec5" stroke-width="0.5"/>
  </g>
  
  <!-- Numbers on revealed cells -->
  <g font-family="Arial, sans-serif" font-size="6" font-weight="bold" text-anchor="middle">
    <text x="19" y="42" fill="#2196f3">1</text>
    <text x="27" y="42" fill="#4caf50">2</text>
    <text x="35" y="42" fill="#ff5722">3</text>
    <text x="51" y="42" fill="#9c27b0">1</text>
    <text x="67" y="42" fill="#2196f3">1</text>
    
    <text x="19" y="50" fill="#4caf50">2</text>
    <text x="27" y="50" fill="#ff5722">3</text>
    <text x="51" y="50" fill="#9c27b0">1</text>
    
    <text x="19" y="58" fill="#2196f3">1</text>
    <text x="51" y="58" fill="#2196f3">1</text>
  </g>
  
  <!-- Mine symbol -->
  <g fill="#2c3e50" transform="translate(39, 52)">
    <circle cx="4" cy="4" r="2"/>
    <line x1="2" y1="4" x2="6" y2="4" stroke="#2c3e50" stroke-width="0.5"/>
    <line x1="4" y1="2" x2="4" y2="6" stroke="#2c3e50" stroke-width="0.5"/>
    <line x1="2.5" y1="2.5" x2="5.5" y2="5.5" stroke="#2c3e50" stroke-width="0.3"/>
    <line x1="5.5" y1="2.5" x2="2.5" y2="5.5" stroke="#2c3e50" stroke-width="0.3"/>
  </g>
  
  <!-- Flagged cells -->
  <g transform="translate(55, 20)">
    <polygon points="2,2 2,6 6,4" fill="#f44336"/>
    <line x1="2" y1="2" x2="2" y2="7" stroke="#8d6e63" stroke-width="0.5"/>
  </g>
  
  <g transform="translate(71, 28)">
    <polygon points="2,2 2,6 6,4" fill="#f44336"/>
    <line x1="2" y1="2" x2="2" y2="7" stroke="#8d6e63" stroke-width="0.5"/>
  </g>
  
  <!-- Title -->
  <g fill="#fff" font-family="Arial, sans-serif" font-size="6" text-anchor="middle">
    <text x="50" y="12">MINESWEEPER</text>
  </g>
  
  <!-- Mine counter -->
  <g fill="#fff" font-family="Arial, sans-serif" font-size="4" text-anchor="start">
    <text x="15" y="70">💣 12</text>
    <text x="50" y="70">⏱️ 45s</text>
  </g>
</svg>