<svg viewBox="0 0 200 200" xmlns="http://www.w3.org/2000/svg">
    <defs>
        <linearGradient id="musicGradient" x1="0%" y1="0%" x2="100%" y2="100%">
            <stop offset="0%" style="stop-color:#a29bfe;stop-opacity:1" />
            <stop offset="100%" style="stop-color:#6c5ce7;stop-opacity:1" />
        </linearGradient>
    </defs>
    <circle cx="100" cy="100" r="90" fill="url(#musicGradient)" opacity="0.1"/>
    <g transform="translate(100,100)">
        <g stroke="url(#musicGradient)" stroke-width="2" fill="none">
            <path d="M -30 -10 L 30 -10"/>
            <path d="M -30 -5 L 30 -5"/>
            <path d="M -30 0 L 30 0"/>
            <path d="M -30 5 L 30 5"/>
            <path d="M -30 10 L 30 10"/>
        </g>
        <ellipse cx="-20" cy="0" rx="4" ry="3" fill="url(#musicGradient)">
            <animate attributeName="fill" values="url(#musicGradient);#ff6b6b;url(#musicGradient)" dur="2s" repeatCount="indefinite"/>
        </ellipse>
        <rect x="-18" y="-15" width="2" height="15" fill="url(#musicGradient)"/>
        <ellipse cx="0" cy="-5" rx="4" ry="3" fill="url(#musicGradient)">
            <animate attributeName="fill" values="url(#musicGradient);#4ecdc4;url(#musicGradient)" dur="2.5s" repeatCount="indefinite"/>
        </ellipse>
        <rect x="2" y="-20" width="2" height="15" fill="url(#musicGradient)"/>
        <ellipse cx="20" cy="5" rx="4" ry="3" fill="url(#musicGradient)">
            <animate attributeName="fill" values="url(#musicGradient);#feca57;url(#musicGradient)" dur="1.8s" repeatCount="indefinite"/>
        </ellipse>
        <rect x="22" y="-10" width="2" height="15" fill="url(#musicGradient)"/>
        <g opacity="0.6">
            <circle cx="-25" cy="20" r="2" fill="#ff6b6b">
                <animate attributeName="r" values="2;4;2" dur="2s" repeatCount="indefinite"/>
            </circle>
            <circle cx="0" cy="25" r="2" fill="#4ecdc4">
                <animate attributeName="r" values="2;4;2" dur="2.3s" repeatCount="indefinite"/>
            </circle>
            <circle cx="25" cy="20" r="2" fill="#feca57">
                <animate attributeName="r" values="2;4;2" dur="1.7s" repeatCount="indefinite"/>
            </circle>
        </g>
    </g>
    <circle cx="100" cy="100" r="85" fill="none" stroke="url(#musicGradient)" stroke-width="1" opacity="0.3" stroke-dasharray="4,4">
        <animate attributeName="stroke-dashoffset" values="0;8" dur="2s" repeatCount="indefinite"/>
    </circle>
</svg>