<svg xmlns="http://www.w3.org/2000/svg" viewBox="0 0 100 100" width="100" height="100">
  <defs>
    <linearGradient id="pacmanGrad" x1="0%" y1="0%" x2="100%" y2="100%">
      <stop offset="0%" style="stop-color:#2c3e50;stop-opacity:1" />
      <stop offset="100%" style="stop-color:#1a252f;stop-opacity:1" />
    </linearGradient>
    <radialGradient id="pacmanYellow" cx="50%" cy="50%" r="50%">
      <stop offset="0%" style="stop-color:#ffeb3b;stop-opacity:1" />
      <stop offset="100%" style="stop-color:#ffc107;stop-opacity:1" />
    </radialGradient>
  </defs>
  
  <!-- Background -->
  <rect width="100" height="100" fill="url(#pacmanGrad)" rx="10"/>
  
  <!-- Pac-Man -->
  <g transform="translate(25, 35)">
    <!-- Pac-Man body -->
    <path d="M 25 15 A 15 15 0 1 1 25 45 L 35 30 Z" fill="url(#pacmanYellow)" stroke="#f57f17" stroke-width="1"/>
    
    <!-- Pac-Man eye -->
    <circle cx="20" cy="22" r="2" fill="#2c3e50"/>
  </g>
  
  <!-- Dots -->
  <circle cx="55" cy="50" r="2" fill="#fff"/>
  <circle cx="65" cy="50" r="2" fill="#fff"/>
  <circle cx="75" cy="50" r="2" fill="#fff"/>
  
  <!-- Ghost -->
  <g transform="translate(60, 25)">
    <!-- Ghost body -->
    <path d="M 10 15 A 10 10 0 0 1 30 15 L 30 35 L 27 32 L 24 35 L 21 32 L 18 35 L 15 32 L 12 35 L 10 32 Z" fill="#ff5722" stroke="#d84315" stroke-width="1"/>
    
    <!-- Ghost eyes -->
    <circle cx="16" cy="20" r="2" fill="#fff"/>
    <circle cx="24" cy="20" r="2" fill="#fff"/>
    <circle cx="16" cy="20" r="1" fill="#2c3e50"/>
    <circle cx="24" cy="20" r="1" fill="#2c3e50"/>
  </g>
  
  <!-- Maze elements -->
  <g stroke="#4fc3f7" stroke-width="2" fill="none">
    <rect x="10" y="70" width="20" height="8"/>
    <rect x="35" y="70" width="15" height="8"/>
    <rect x="55" y="70" width="25" height="8"/>
    <rect x="85" y="70" width="8" height="15"/>
  </g>
</svg>