<svg xmlns="http://www.w3.org/2000/svg" viewBox="0 0 100 100" width="100" height="100">
  <defs>
    <linearGradient id="muscleGradient" x1="0%" y1="0%" x2="100%" y2="100%">
      <stop offset="0%" style="stop-color:#e74c3c;stop-opacity:1" />
      <stop offset="100%" style="stop-color:#c0392b;stop-opacity:1" />
    </linearGradient>
    <linearGradient id="trackGradient" x1="0%" y1="0%" x2="100%" y2="100%">
      <stop offset="0%" style="stop-color:#e67e22;stop-opacity:1" />
      <stop offset="100%" style="stop-color:#d35400;stop-opacity:1" />
    </linearGradient>
  </defs>
  
  <!-- Background -->
  <rect width="100" height="100" fill="#ecf0f1"/>
  
  <!-- Running track -->
  <ellipse cx="50" cy="70" rx="40" ry="20" fill="url(#trackGradient)" opacity="0.3"/>
  <ellipse cx="50" cy="70" rx="35" ry="15" fill="none" stroke="#d35400" stroke-width="2"/>
  <ellipse cx="50" cy="70" rx="30" ry="12" fill="none" stroke="#d35400" stroke-width="1" stroke-dasharray="3,2"/>
  
  <!-- Running figure -->
  <g transform="translate(30,60)">
    <!-- Head -->
    <circle cx="0" cy="-8" r="3" fill="#f4d1ae"/>
    <!-- Body -->
    <ellipse cx="0" cy="0" rx="2" ry="6" fill="#3498db"/>
    <!-- Arms -->
    <ellipse cx="-4" cy="-2" rx="1" ry="4" fill="#f4d1ae" transform="rotate(-30)"/>
    <ellipse cx="4" cy="-2" rx="1" ry="4" fill="#f4d1ae" transform="rotate(30)"/>
    <!-- Legs -->
    <ellipse cx="-2" cy="8" rx="1" ry="5" fill="#2c3e50" transform="rotate(-20)"/>
    <ellipse cx="2" cy="8" rx="1" ry="5" fill="#2c3e50" transform="rotate(20)"/>
    <!-- Motion lines -->
    <g stroke="#95a5a6" stroke-width="1" opacity="0.6">
      <line x1="-8" y1="0" x2="-6" y2="0"/>
      <line x1="-8" y1="2" x2="-5" y2="2"/>
      <line x1="-8" y1="-2" x2="-5" y2="-2"/>
    </g>
  </g>
  
  <!-- Dumbbell -->
  <g transform="translate(70,30)">
    <!-- Dumbbell bar -->
    <rect x="-8" y="-1" width="16" height="2" fill="#7f8c8d"/>
    <!-- Dumbbell weights -->
    <rect x="-12" y="-3" width="4" height="6" fill="#34495e" rx="1"/>
    <rect x="8" y="-3" width="4" height="6" fill="#34495e" rx="1"/>
    <!-- Weight plates -->
    <rect x="-11" y="-2" width="2" height="4" fill="#2c3e50"/>
    <rect x="9" y="-2" width="2" height="4" fill="#2c3e50"/>
  </g>
  
  <!-- Flexing arm -->
  <g transform="translate(25,25)">
    <!-- Upper arm -->
    <ellipse cx="0" cy="0" rx="3" ry="8" fill="#f4d1ae" transform="rotate(30)"/>
    <!-- Forearm -->
    <ellipse cx="6" cy="6" rx="2.5" ry="6" fill="#f4d1ae" transform="rotate(-30)"/>
    <!-- Bicep muscle -->
    <ellipse cx="2" cy="2" rx="2" ry="3" fill="url(#muscleGradient)" opacity="0.7" transform="rotate(30)"/>
    <!-- Hand -->
    <circle cx="10" cy="10" r="2" fill="#f4d1ae"/>
  </g>
  
  <!-- Stopwatch -->
  <g transform="translate(80,70)">
    <circle cx="0" cy="0" r="6" fill="#ecf0f1" stroke="#95a5a6" stroke-width="2"/>
    <circle cx="0" cy="0" r="4" fill="#fff"/>
    <!-- Stopwatch button -->
    <rect x="-0.8" y="-8" width="1.6" height="1.5" fill="#95a5a6"/>
    <!-- Stopwatch hands -->
    <line x1="0" y1="0" x2="0" y2="-3" stroke="#e74c3c" stroke-width="2"/>
    <line x1="0" y1="0" x2="2" y2="0" stroke="#2c3e50" stroke-width="1"/>
    <circle cx="0" cy="0" r="0.8" fill="#2c3e50"/>
    <!-- Time markers -->
    <g stroke="#2c3e50" stroke-width="0.8">
      <line x1="0" y1="-3.5" x2="0" y2="-3"/>
      <line x1="3.5" y1="0" x2="3" y2="0"/>
      <line x1="0" y1="3.5" x2="0" y2="3"/>
      <line x1="-3.5" y1="0" x2="-3" y2="0"/>
    </g>
  </g>
  
  <!-- Jump rope -->
  <g transform="translate(15,50)">
    <!-- Rope handles -->
    <rect x="-1" y="-6" width="2" height="8" fill="#2c3e50" rx="1"/>
    <rect x="-1" y="10" width="2" height="8" fill="#2c3e50" rx="1"/>
    <!-- Rope -->
    <path d="M0,2 Q10,15 20,10 Q30,5 40,15 Q50,25 60,15 Q70,5 80,10 Q90,15 100,2" 
          stroke="#e74c3c" stroke-width="2" fill="none"/>
  </g>
  
  <!-- Push-up figure -->
  <g transform="translate(50,45)">
    <!-- Head -->
    <circle cx="8" cy="-2" r="2" fill="#f4d1ae"/>
    <!-- Body -->
    <rect x="0" y="0" width="8" height="2" fill="#27ae60"/>
    <!-- Arms -->
    <rect x="-2" y="-1" width="2" height="4" fill="#f4d1ae"/>
    <rect x="8" y="-1" width="2" height="4" fill="#f4d1ae"/>
    <!-- Legs -->
    <rect x="0" y="2" width="8" height="1.5" fill="#2c3e50"/>
  </g>
  
  <!-- Barbell -->
  <g transform="translate(50,85)">
    <!-- Barbell bar -->
    <rect x="-15" y="-0.5" width="30" height="1" fill="#7f8c8d"/>
    <!-- Weight plates -->
    <rect x="-18" y="-2" width="3" height="4" fill="#34495e" rx="0.5"/>
    <rect x="15" y="-2" width="3" height="4" fill="#34495e" rx="0.5"/>
    <rect x="-16" y="-1.5" width="1" height="3" fill="#2c3e50"/>
    <rect x="15" y="-1.5" width="1" height="3" fill="#2c3e50"/>
  </g>
  
  <!-- Target/bullseye -->
  <g transform="translate(85,15)">
    <circle cx="0" cy="0" r="8" fill="#e74c3c"/>
    <circle cx="0" cy="0" r="6" fill="#fff"/>
    <circle cx="0" cy="0" r="4" fill="#e74c3c"/>
    <circle cx="0" cy="0" r="2" fill="#fff"/>
    <circle cx="0" cy="0" r="1" fill="#e74c3c"/>
  </g>
  
  <!-- Whistle -->
  <g transform="translate(15,15)">
    <ellipse cx="0" cy="0" rx="4" ry="2" fill="#95a5a6"/>
    <circle cx="-2" cy="0" r="0.5" fill="#2c3e50"/>
    <rect x="4" y="-0.5" width="2" height="1" fill="#95a5a6"/>
    <!-- Whistle string -->
    <path d="M0,2 Q2,6 0,10" stroke="#2c3e50" stroke-width="1" fill="none"/>
  </g>
  
  <!-- Energy/power symbols -->
  <g fill="#f1c40f" opacity="0.8">
    <polygon points="75,50 77,54 81,52 79,56 83,58 79,56 77,60 75,56 71,58 75,54 73,50 77,52"/>
    <polygon points="25,75 26,77 28,76 27,78 29,79 27,78 26,80 25,78 23,79 25,77 24,75 26,76"/>
  </g>
  
  <!-- Sweat drops -->
  <g fill="#3498db" opacity="0.6">
    <ellipse cx="35" cy="55" rx="0.5" ry="1"/>
    <ellipse cx="32" cy="58" rx="0.3" ry="0.8"/>
    <ellipse cx="75" cy="25" rx="0.4" ry="0.9"/>
  </g>
  
  <!-- Finish line -->
  <g transform="translate(90,60)" stroke="#2c3e50" stroke-width="1">
    <line x1="0" y1="0" x2="0" y2="10"/>
    <rect x="-0.5" y="0" width="1" height="2" fill="#2c3e50"/>
    <rect x="-0.5" y="4" width="1" height="2" fill="#2c3e50"/>
    <rect x="-0.5" y="8" width="1" height="2" fill="#2c3e50"/>
  </g>
</svg>