<svg viewBox="0 0 200 200" xmlns="http://www.w3.org/2000/svg">
  <defs>
    <radialGradient id="spaceGradient" cx="50%" cy="50%" r="50%">
      <stop offset="0%" style="stop-color:#2d3436;stop-opacity:1" />
      <stop offset="100%" style="stop-color:#000;stop-opacity:1" />
    </radialGradient>
    <linearGradient id="planetGradient" x1="0%" y1="0%" x2="100%" y2="100%">
      <stop offset="0%" style="stop-color:#fd79a8;stop-opacity:1" />
      <stop offset="50%" style="stop-color:#fdcb6e;stop-opacity:1" />
      <stop offset="100%" style="stop-color:#e17055;stop-opacity:1" />
    </linearGradient>
    <linearGradient id="moonGradient" x1="0%" y1="0%" x2="100%" y2="100%">
      <stop offset="0%" style="stop-color:#ddd;stop-opacity:1" />
      <stop offset="100%" style="stop-color:#bbb;stop-opacity:1" />
    </linearGradient>
  </defs>
  
  <!-- Space background -->
  <circle cx="100" cy="100" r="90" fill="url(#spaceGradient)"/>
  
  <!-- Stars -->
  <g fill="#fff" opacity="0.8">
    <circle cx="30" cy="40" r="1">
      <animate attributeName="opacity" values="0.8;0.3;0.8" dur="2s" repeatCount="indefinite"/>
    </circle>
    <circle cx="170" cy="30" r="1.5">
      <animate attributeName="opacity" values="0.8;0.3;0.8" dur="3s" repeatCount="indefinite"/>
    </circle>
    <circle cx="160" cy="170" r="1">
      <animate attributeName="opacity" values="0.8;0.3;0.8" dur="2.5s" repeatCount="indefinite"/>
    </circle>
    <circle cx="40" cy="160" r="1">
      <animate attributeName="opacity" values="0.8;0.3;0.8" dur="1.8s" repeatCount="indefinite"/>
    </circle>
    <circle cx="180" cy="100" r="1.2">
      <animate attributeName="opacity" values="0.8;0.3;0.8" dur="2.2s" repeatCount="indefinite"/>
    </circle>
    <circle cx="20" cy="100" r="1">
      <animate attributeName="opacity" values="0.8;0.3;0.8" dur="2.8s" repeatCount="indefinite"/>
    </circle>
  </g>
  
  <!-- Planet with rings (Saturn-like) -->
  <g transform="translate(100,100)">
    <!-- Planet rings -->
    <ellipse cx="0" cy="0" rx="45" ry="15" fill="none" stroke="#74b9ff" stroke-width="2" opacity="0.6"/>
    <ellipse cx="0" cy="0" rx="38" ry="12" fill="none" stroke="#0984e3" stroke-width="1.5" opacity="0.4"/>
    
    <!-- Planet -->
    <circle cx="0" cy="0" r="25" fill="url(#planetGradient)"/>
    
    <!-- Planet surface details -->
    <ellipse cx="-8" cy="-5" rx="6" ry="3" fill="#e17055" opacity="0.6"/>
    <ellipse cx="10" cy="8" rx="4" ry="2" fill="#fd79a8" opacity="0.5"/>
    
    <!-- Planet highlight -->
    <ellipse cx="-8" cy="-8" rx="8" ry="6" fill="#fff" opacity="0.2"/>
  </g>
  
  <!-- Small moon -->
  <g transform="translate(60,60)">
    <circle cx="0" cy="0" r="8" fill="url(#moonGradient)"/>
    <circle cx="-2" cy="-2" r="1.5" fill="#999" opacity="0.6"/>
    <circle cx="3" cy="1" r="1" fill="#999" opacity="0.4"/>
    <animateTransform attributeName="transform" type="rotate" values="0 100 100;360 100 100" dur="10s" repeatCount="indefinite"/>
  </g>
  
  <!-- Comet -->
  <g transform="translate(140,50)">
    <circle cx="0" cy="0" r="3" fill="#74b9ff"/>
    <path d="M 3 0 Q 15 -5 25 -8 Q 20 0 25 8 Q 15 5 3 0" fill="#74b9ff" opacity="0.4"/>
    <animateTransform attributeName="transform" type="translate" values="140,50;160,70;140,50" dur="4s" repeatCount="indefinite"/>
  </g>
  
  <!-- Nebula effect -->
  <g opacity="0.3">
    <ellipse cx="150" cy="130" rx="20" ry="10" fill="#fd79a8" opacity="0.3">
      <animate attributeName="rx" values="20;25;20" dur="5s" repeatCount="indefinite"/>
    </ellipse>
    <ellipse cx="50" cy="140" rx="15" ry="8" fill="#74b9ff" opacity="0.2">
      <animate attributeName="ry" values="8;12;8" dur="4s" repeatCount="indefinite"/>
    </ellipse>
  </g>
</svg>