<svg viewBox="0 0 200 200" xmlns="http://www.w3.org/2000/svg">
    <defs>
        <linearGradient id="sportsGradient" x1="0%" y1="0%" x2="100%" y2="100%">
            <stop offset="0%" style="stop-color:#00b894;stop-opacity:1" />
            <stop offset="100%" style="stop-color:#00cec9;stop-opacity:1" />
        </linearGradient>
    </defs>
    <circle cx="100" cy="100" r="90" fill="url(#sportsGradient)" opacity="0.1"/>
    <g transform="translate(100,100)">
        <circle cx="0" cy="0" r="20" fill="none" stroke="url(#sportsGradient)" stroke-width="3"/>
        <g fill="url(#sportsGradient)" opacity="0.8">
            <polygon points="0,-15 5,-5 15,-5 8,2 10,12 0,7 -10,12 -8,2 -15,-5 -5,-5"/>
        </g>
        <g transform="translate(-25,0)">
            <rect x="0" y="-8" width="15" height="4" rx="2" fill="url(#sportsGradient)"/>
            <rect x="0" y="4" width="15" height="4" rx="2" fill="url(#sportsGradient)"/>
            <circle cx="3" cy="-6" r="2" fill="#2d3436"/>
            <circle cx="12" cy="-6" r="2" fill="#2d3436"/>
            <circle cx="3" cy="6" r="2" fill="#2d3436"/>
            <circle cx="12" cy="6" r="2" fill="#2d3436"/>
        </g>
        <g transform="translate(25,0)">
            <rect x="-15" y="-8" width="15" height="4" rx="2" fill="url(#sportsGradient)"/>
            <rect x="-15" y="4" width="15" height="4" rx="2" fill="url(#sportsGradient)"/>
            <circle cx="-12" cy="-6" r="2" fill="#2d3436"/>
            <circle cx="-3" cy="-6" r="2" fill="#2d3436"/>
            <circle cx="-12" cy="6" r="2" fill="#2d3436"/>
            <circle cx="-3" cy="6" r="2" fill="#2d3436"/>
        </g>
        <g opacity="0.6">
            <circle cx="-30" cy="-25" r="3" fill="#ff6b6b">
                <animate attributeName="r" values="3;5;3" dur="2s" repeatCount="indefinite"/>
            </circle>
            <circle cx="30" cy="-25" r="3" fill="#feca57">
                <animate attributeName="r" values="3;5;3" dur="2.2s" repeatCount="indefinite"/>
            </circle>
            <circle cx="0" cy="30" r="3" fill="#4ecdc4">
                <animate attributeName="r" values="3;5;3" dur="1.8s" repeatCount="indefinite"/>
            </circle>
        </g>
        <path d="M -35 25 Q 0 20 35 25" stroke="url(#sportsGradient)" stroke-width="2" fill="none" opacity="0.5" stroke-dasharray="4,4">
            <animate attributeName="stroke-dashoffset" values="0;8" dur="2s" repeatCount="indefinite"/>
        </path>
    </g>
    <circle cx="100" cy="100" r="85" fill="none" stroke="url(#sportsGradient)" stroke-width="1" opacity="0.3" stroke-dasharray="5,5">
        <animate attributeName="stroke-dashoffset" values="0;10" dur="2s" repeatCount="indefinite"/>
    </circle>
</svg>