<svg xmlns="http://www.w3.org/2000/svg" viewBox="0 0 100 100">
  <defs>
    <linearGradient id="storyGrad" x1="0%" y1="0%" x2="100%" y2="100%">
      <stop offset="0%" style="stop-color:#8E44AD;stop-opacity:1" />
      <stop offset="50%" style="stop-color:#9B59B6;stop-opacity:1" />
      <stop offset="100%" style="stop-color:#E74C3C;stop-opacity:1" />
    </linearGradient>
    <radialGradient id="magicGlow" cx="50%" cy="50%" r="50%">
      <stop offset="0%" style="stop-color:#FFD700;stop-opacity:0.8" />
      <stop offset="50%" style="stop-color:#9B59B6;stop-opacity:0.4" />
      <stop offset="100%" style="stop-color:#8E44AD;stop-opacity:0" />
    </radialGradient>
    <linearGradient id="enchantedGrad" x1="0%" y1="0%" x2="100%" y2="0%">
      <stop offset="0%" style="stop-color:#FF6B6B;stop-opacity:1" />
      <stop offset="50%" style="stop-color:#9B59B6;stop-opacity:1" />
      <stop offset="100%" style="stop-color:#4ECDC4;stop-opacity:1" />
    </linearGradient>
    <filter id="storyGlow">
      <feGaussianBlur stdDeviation="2" result="coloredBlur"/>
      <feMerge> 
        <feMergeNode in="coloredBlur"/>
        <feMergeNode in="SourceGraphic"/>
      </feMerge>
    </filter>
    <filter id="magicSparkle">
      <feGaussianBlur stdDeviation="1" result="blur"/>
      <feColorMatrix in="blur" type="matrix" values="1 0 0 0 0  0 1 0 0 0  0 0 1 0 0  0 0 0 1 0"/>
    </filter>
  </defs>
  
  <!-- Enchanted story realm background -->
  <circle cx="50" cy="50" r="45" fill="url(#storyGrad)" opacity="0.1">
    <animate attributeName="opacity" values="0.1; 0.3; 0.1" dur="4s" repeatCount="indefinite"/>
    <animateTransform attributeName="transform" type="rotate" values="0 50 50; 360 50 50" dur="50s" repeatCount="indefinite"/>
  </circle>
  
  <!-- Magical aura around the story -->
  <circle cx="50" cy="50" r="30" fill="url(#magicGlow)" opacity="0.3">
    <animate attributeName="r" values="30; 40; 30" dur="3s" repeatCount="indefinite"/>
    <animate attributeName="opacity" values="0.3; 0.6; 0.3" dur="2s" repeatCount="indefinite"/>
    <animateTransform attributeName="transform" type="rotate" values="0 50 50; 360 50 50" dur="20s" repeatCount="indefinite"/>
  </circle>
  
  <!-- Open storybook -->
  <g transform="translate(50,55)">
    <!-- Book shadow -->
    <ellipse cx="2" cy="18" rx="22" ry="8" fill="#1a252f" opacity="0.6"/>
    
    <!-- Book pages -->
    <path d="M-25,0 Q-25,-20 0,-20 Q25,-20 25,0 L25,15 Q25,20 20,20 L-20,20 Q-25,20 -25,15 Z" fill="#f8f9fa" stroke="#bdc3c7" stroke-width="1"/>
    
    <!-- Book spine -->
    <rect x="-1.5" y="-20" width="3" height="40" fill="#34495e"/>
    
    <!-- Left page -->
    <path d="M-25,0 Q-25,-20 0,-20 L0,20 L-20,20 Q-25,20 -25,15 Z" fill="#fff"/>
    
    <!-- Right page -->
    <path d="M0,-20 Q25,-20 25,0 L25,15 Q25,20 20,20 L0,20 Z" fill="#f8f9fa"/>
    
    <!-- Story text on left page -->
    <g stroke="#2c3e50" stroke-width="0.5" opacity="0.8">
      <line x1="-22" y1="-15" x2="-3" y2="-15"/>
      <line x1="-22" y1="-12" x2="-5" y2="-12"/>
      <line x1="-22" y1="-9" x2="-4" y2="-9"/>
      <line x1="-22" y1="-6" x2="-6" y2="-6"/>
      <line x1="-22" y1="-3" x2="-3" y2="-3"/>
      <line x1="-22" y1="0" x2="-7" y2="0"/>
      <line x1="-22" y1="3" x2="-4" y2="3"/>
      <line x1="-22" y1="6" x2="-5" y2="6"/>
      <line x1="-22" y1="9" x2="-8" y2="9"/>
      <line x1="-22" y1="12" x2="-6" y2="12"/>
      <line x1="-22" y1="15" x2="-10" y2="15"/>
    </g>
    
    <!-- Story illustration on right page -->
    <g transform="translate(12,-5)">
      <!-- Castle -->
      <rect x="-8" y="5" width="16" height="12" fill="#95a5a6"/>
      <polygon points="-8,5 0,-2 8,5" fill="#e74c3c"/>
      
      <!-- Castle towers -->
      <rect x="-10" y="8" width="4" height="9" fill="#7f8c8d"/>
      <rect x="6" y="8" width="4" height="9" fill="#7f8c8d"/>
      <polygon points="-10,8 -8,5 -6,8" fill="#c0392b"/>
      <polygon points="6,8 8,5 10,8" fill="#c0392b"/>
      
      <!-- Castle door -->
      <rect x="-2" y="12" width="4" height="5" fill="#8b4513" rx="2"/>
      
      <!-- Castle windows -->
      <rect x="-6" y="10" width="2" height="2" fill="#f1c40f"/>
      <rect x="4" y="10" width="2" height="2" fill="#f1c40f"/>
      
      <!-- Dragon -->
      <g transform="translate(-15,0)">
        <!-- Dragon body -->
        <ellipse cx="0" cy="0" rx="3" ry="2" fill="#27ae60"/>
        <!-- Dragon head -->
        <circle cx="-4" cy="-1" r="2" fill="#27ae60"/>
        <!-- Dragon wings -->
        <ellipse cx="1" cy="-2" rx="2" ry="3" fill="#2ecc71" opacity="0.8"/>
        <!-- Dragon tail -->
        <path d="M3,0 Q6,2 8,0" stroke="#27ae60" stroke-width="2" fill="none"/>
        <!-- Fire breath -->
        <g fill="#e74c3c" opacity="0.8">
          <circle cx="-6" cy="-1" r="0.5"/>
          <circle cx="-7" cy="-0.5" r="0.3"/>
          <circle cx="-7.5" cy="-1.5" r="0.2"/>
        </g>
      </g>
    </g>
  </g>
  
  <!-- Floating story elements -->
  <g opacity="0.7">
    <!-- Magic wand -->
    <g transform="translate(20,25)">
      <rect x="0" y="0" width="2" height="15" fill="#8b4513" transform="rotate(45)"/>
      <polygon points="0,0 2,2 0,4 -2,2" fill="#f1c40f" transform="rotate(45)"/>
      
      <!-- Magic sparkles -->
      <g fill="#f1c40f">
        <circle cx="3" cy="3" r="0.5"/>
        <circle cx="5" cy="1" r="0.3"/>
        <circle cx="1" cy="5" r="0.4"/>
        <circle cx="6" cy="4" r="0.2"/>
      </g>
    </g>
    
    <!-- Crown -->
    <g transform="translate(80,20)">
      <path d="M-6,0 L-4,-4 L-2,0 L0,-5 L2,0 L4,-4 L6,0 L6,3 L-6,3 Z" fill="#f1c40f"/>
      <g fill="#e74c3c">
        <circle cx="-3" cy="1" r="1"/>
        <circle cx="0" cy="1" r="1"/>
        <circle cx="3" cy="1" r="1"/>
      </g>
    </g>
    
    <!-- Sword -->
    <g transform="translate(15,75)">
      <rect x="-1" y="0" width="2" height="12" fill="#95a5a6"/>
      <rect x="-3" y="0" width="6" height="2" fill="#8b4513"/>
      <circle cx="0" cy="1" r="1.5" fill="#f39c12"/>
      <polygon points="-1,12 0,15 1,12" fill="#bdc3c7"/>
    </g>
    
    <!-- Scroll -->
    <g transform="translate(85,75)">
      <rect x="-8" y="-2" width="16" height="8" fill="#f4d1ae"/>
      <circle cx="-8" cy="2" r="2" fill="#deb887"/>
      <circle cx="8" cy="2" r="2" fill="#deb887"/>
      
      <!-- Scroll text -->
      <g stroke="#8b4513" stroke-width="0.3">
        <line x1="-6" y1="-1" x2="6" y2="-1"/>
        <line x1="-6" y1="0" x2="4" y2="0"/>
        <line x1="-6" y1="1" x2="5" y2="1"/>
        <line x1="-6" y1="2" x2="3" y2="2"/>
        <line x1="-6" y1="3" x2="6" y2="3"/>
      </g>
    </g>
  </g>
  
  <!-- Speech bubbles with story elements -->
  <g fill="#ecf0f1" opacity="0.9">
    <!-- Bubble 1 -->
    <g transform="translate(25,45)">
      <ellipse cx="0" cy="0" rx="8" ry="5" fill="#ecf0f1"/>
      <polygon points="-3,3 -5,7 -1,4" fill="#ecf0f1"/>
      
      <!-- Story character in bubble -->
      <g transform="scale(0.6)">
        <!-- Princess -->
        <circle cx="0" cy="-2" r="2" fill="#f4d1ae"/>
        <rect x="-2" y="0" width="4" height="5" fill="#e91e63" rx="2"/>
        <polygon points="-3,5 0,2 3,5" fill="#e91e63"/>
        <!-- Crown -->
        <path d="M-2,-4 L-1,-6 L0,-4 L1,-6 L2,-4 L2,-2 L-2,-2 Z" fill="#f1c40f"/>
      </g>
    </g>
    
    <!-- Bubble 2 -->
    <g transform="translate(75,45)">
      <ellipse cx="0" cy="0" rx="8" ry="5" fill="#ecf0f1"/>
      <polygon points="3,3 5,7 1,4" fill="#ecf0f1"/>
      
      <!-- Story character in bubble -->
      <g transform="scale(0.6)">
        <!-- Knight -->
        <circle cx="0" cy="-2" r="2" fill="#f4d1ae"/>
        <rect x="-2" y="0" width="4" height="5" fill="#95a5a6" rx="1"/>
        <!-- Helmet -->
        <rect x="-2" y="-4" width="4" height="3" fill="#7f8c8d" rx="2"/>
        <!-- Shield -->
        <ellipse cx="3" cy="1" rx="1.5" ry="2" fill="#3498db"/>
        <path d="M3,-1 L3,3" stroke="#fff" stroke-width="0.5"/>
        <path d="M1.5,1 L4.5,1" stroke="#fff" stroke-width="0.5"/>
      </g>
    </g>
  </g>
  
  <!-- Magical particles -->
  <g fill="#f1c40f" opacity="0.8">
    <circle cx="30" cy="20" r="1"/>
    <circle cx="70" cy="25" r="0.8"/>
    <circle cx="20" cy="60" r="0.6"/>
    <circle cx="80" cy="65" r="1.2"/>
    <circle cx="40" cy="80" r="0.7"/>
    <circle cx="60" cy="15" r="0.9"/>
    <circle cx="15" cy="40" r="0.5"/>
    <circle cx="85" cy="40" r="1.1"/>
    <circle cx="45" cy="25" r="0.4"/>
    <circle cx="55" cy="85" r="0.8"/>
  </g>
  
  <!-- Story path -->
  <g stroke="#9b59b6" stroke-width="2" fill="none" opacity="0.6">
    <path d="M10,90 Q30,70 50,80 Q70,90 90,70"/>
  </g>
  
  <!-- Quill pen -->
  <g transform="translate(30,15)">
    <!-- Feather -->
    <path d="M0,0 Q-2,-8 0,-15 Q2,-8 0,0" fill="#8e44ad"/>
    <path d="M0,0 Q-1,-8 0,-15" stroke="#9b59b6" stroke-width="0.5" fill="none"/>
    
    <!-- Quill tip -->
    <path d="M0,0 L1,2 L-1,2 Z" fill="#34495e"/>
    
    <!-- Ink drop -->
    <circle cx="0" cy="3" r="0.5" fill="#2c3e50"/>
  </g>
  
  <!-- Storyteller silhouette -->
  <g transform="translate(10,10)" opacity="0.4">
    <!-- Head -->
    <circle cx="0" cy="0" r="3" fill="#34495e"/>
    <!-- Body -->
    <rect x="-2" y="3" width="4" height="6" fill="#34495e" rx="2"/>
    <!-- Arms -->
    <rect x="-4" y="4" width="2" height="4" fill="#34495e" rx="1"/>
    <rect x="2" y="4" width="2" height="4" fill="#34495e" rx="1"/>
    <!-- Gesture -->
    <circle cx="5" cy="6" r="1" fill="none" stroke="#34495e" stroke-width="1"/>
  </g>
  
  <!-- Book pages turning -->
  <g transform="translate(50,55)" opacity="0.3">
    <path d="M25,0 Q30,-5 35,0 Q30,5 25,0" fill="#fff"/>
    <path d="M25,2 Q30,-3 35,2 Q30,7 25,2" fill="#f8f9fa"/>
  </g>
  
  <!-- Story genres floating -->
  <g fill="#ecf0f1" opacity="0.6" font-family="Arial" font-size="3">
    <text x="5" y="25" transform="rotate(-15)">Adventure</text>
    <text x="85" y="85" transform="rotate(10)">Fantasy</text>
    <text x="15" y="85" transform="rotate(-10)">Mystery</text>
    <text x="75" y="15" transform="rotate(15)">Romance</text>
  </g>
  
  <!-- Constellation of story elements -->
  <g stroke="#f1c40f" stroke-width="1" opacity="0.4" fill="none">
    <line x1="30" y1="20" x2="70" y2="25"/>
    <line x1="70" y1="25" x2="80" y2="65"/>
    <line x1="80" y1="65" x2="40" y2="80"/>
    <line x1="40" y1="80" x2="20" y2="60"/>
    <line x1="20" y1="60" x2="30" y2="20"/>
  </g>
</svg>