<svg viewBox="0 0 200 200" xmlns="http://www.w3.org/2000/svg">
    <defs>
        <linearGradient id="techGradient" x1="0%" y1="0%" x2="100%" y2="100%">
            <stop offset="0%" style="stop-color:#00cec9;stop-opacity:1" />
            <stop offset="100%" style="stop-color:#55a3ff;stop-opacity:1" />
        </linearGradient>
        <linearGradient id="circuitGradient" x1="0%" y1="0%" x2="100%" y2="100%">
            <stop offset="0%" style="stop-color:#0984e3;stop-opacity:1" />
            <stop offset="100%" style="stop-color:#74b9ff;stop-opacity:1" />
        </linearGradient>
        <linearGradient id="atomGradient" x1="0%" y1="0%" x2="100%" y2="100%">
            <stop offset="0%" style="stop-color:#fd79a8;stop-opacity:1" />
            <stop offset="100%" style="stop-color:#e84393;stop-opacity:1" />
        </linearGradient>
        <linearGradient id="dnaGradient" x1="0%" y1="0%" x2="100%" y2="100%">
            <stop offset="0%" style="stop-color:#00b894;stop-opacity:1" />
            <stop offset="100%" style="stop-color:#00cec9;stop-opacity:1" />
        </linearGradient>
    </defs>
    <circle cx="100" cy="100" r="90" fill="url(#techGradient)" opacity="0.1"/>
    
    <!-- Atom structure -->
    <g transform="translate(70,70)">
        <circle cx="0" cy="0" r="4" fill="url(#atomGradient)"/>
        <ellipse cx="0" cy="0" rx="20" ry="8" fill="none" stroke="url(#atomGradient)" stroke-width="2" opacity="0.7">
            <animateTransform attributeName="transform" type="rotate" values="0;360" dur="3s" repeatCount="indefinite"/>
        </ellipse>
        <ellipse cx="0" cy="0" rx="8" ry="20" fill="none" stroke="url(#atomGradient)" stroke-width="2" opacity="0.7">
            <animateTransform attributeName="transform" type="rotate" values="0;-360" dur="2s" repeatCount="indefinite"/>
        </ellipse>
        <circle cx="18" cy="0" r="2" fill="url(#atomGradient)">
            <animateTransform attributeName="transform" type="rotate" values="0;360" dur="3s" repeatCount="indefinite"/>
        </circle>
        <circle cx="0" cy="18" r="2" fill="url(#atomGradient)">
            <animateTransform attributeName="transform" type="rotate" values="0;-360" dur="2s" repeatCount="indefinite"/>
        </circle>
    </g>
    
    <!-- Circuit board pattern -->
    <g transform="translate(120,60)" opacity="0.8">
        <rect x="0" y="0" width="30" height="20" rx="2" fill="none" stroke="url(#circuitGradient)" stroke-width="2"/>
        <line x1="5" y1="10" x2="25" y2="10" stroke="url(#circuitGradient)" stroke-width="2"/>
        <line x1="15" y1="5" x2="15" y2="15" stroke="url(#circuitGradient)" stroke-width="2"/>
        <circle cx="10" cy="10" r="2" fill="url(#circuitGradient)"/>
        <circle cx="20" cy="10" r="2" fill="url(#circuitGradient)"/>
        <rect x="8" y="3" width="4" height="4" fill="url(#circuitGradient)"/>
        <rect x="18" y="13" width="4" height="4" fill="url(#circuitGradient)"/>
    </g>
    
    <!-- DNA helix -->
    <g transform="translate(60,120)">
        <path d="M 0 0 Q 10 -10 20 0 Q 30 10 40 0" stroke="url(#dnaGradient)" stroke-width="3" fill="none"/>
        <path d="M 0 0 Q 10 10 20 0 Q 30 -10 40 0" stroke="url(#dnaGradient)" stroke-width="3" fill="none"/>
        <line x1="5" y1="-5" x2="5" y2="5" stroke="url(#dnaGradient)" stroke-width="2"/>
        <line x1="15" y1="-5" x2="15" y2="5" stroke="url(#dnaGradient)" stroke-width="2"/>
        <line x1="25" y1="-5" x2="25" y2="5" stroke="url(#dnaGradient)" stroke-width="2"/>
        <line x1="35" y1="-5" x2="35" y2="5" stroke="url(#dnaGradient)" stroke-width="2"/>
        <animateTransform attributeName="transform" type="translate" values="60,120;60,115;60,120" dur="2s" repeatCount="indefinite"/>
    </g>
    
    <!-- Gear -->
    <g transform="translate(130,130)">
        <circle cx="0" cy="0" r="12" fill="none" stroke="url(#techGradient)" stroke-width="3"/>
        <circle cx="0" cy="0" r="6" fill="url(#techGradient)"/>
        <rect x="-2" y="-15" width="4" height="6" fill="url(#techGradient)"/>
        <rect x="-2" y="9" width="4" height="6" fill="url(#techGradient)"/>
        <rect x="-15" y="-2" width="6" height="4" fill="url(#techGradient)"/>
        <rect x="9" y="-2" width="6" height="4" fill="url(#techGradient)"/>
        <animateTransform attributeName="transform" type="rotate" values="0;360" dur="4s" repeatCount="indefinite"/>
    </g>
    
    <!-- Molecular structure -->
    <g transform="translate(40,140)" opacity="0.7">
        <circle cx="0" cy="0" r="3" fill="url(#atomGradient)"/>
        <circle cx="15" cy="0" r="3" fill="url(#atomGradient)"/>
        <circle cx="7.5" cy="13" r="3" fill="url(#atomGradient)"/>
        <line x1="0" y1="0" x2="15" y2="0" stroke="url(#atomGradient)" stroke-width="2"/>
        <line x1="0" y1="0" x2="7.5" y2="13" stroke="url(#atomGradient)" stroke-width="2"/>
        <line x1="15" y1="0" x2="7.5" y2="13" stroke="url(#atomGradient)" stroke-width="2"/>
    </g>
    
    <circle cx="100" cy="100" r="85" fill="none" stroke="url(#techGradient)" stroke-width="1" opacity="0.3" stroke-dasharray="3,3">
        <animate attributeName="stroke-dashoffset" values="0;6" dur="2s" repeatCount="indefinite"/>
    </circle>
</svg>