<svg viewBox="0 0 200 200" xmlns="http://www.w3.org/2000/svg">
    <defs>
        <linearGradient id="techGradient" x1="0%" y1="0%" x2="100%" y2="100%">
            <stop offset="0%" style="stop-color:#0984e3;stop-opacity:1" />
            <stop offset="100%" style="stop-color:#74b9ff;stop-opacity:1" />
        </linearGradient>
    </defs>
    <circle cx="100" cy="100" r="90" fill="url(#techGradient)" opacity="0.1"/>
    <g transform="translate(100,100)">
        <rect x="-25" y="-15" width="50" height="30" rx="3" fill="none" stroke="url(#techGradient)" stroke-width="3"/>
        <rect x="-20" y="-10" width="40" height="20" rx="2" fill="url(#techGradient)" opacity="0.3"/>
        <g fill="#fff">
            <rect x="-15" y="-5" width="8" height="2"/>
            <rect x="-5" y="-5" width="8" height="2"/>
            <rect x="5" y="-5" width="8" height="2"/>
            <rect x="-15" y="0" width="8" height="2"/>
            <rect x="-5" y="0" width="8" height="2"/>
            <rect x="5" y="0" width="8" height="2"/>
            <rect x="-15" y="5" width="8" height="2"/>
            <rect x="-5" y="5" width="8" height="2"/>
        </g>
        <circle cx="0" cy="0" r="3" fill="#00b894">
            <animate attributeName="fill" values="#00b894;#00cec9;#00b894" dur="2s" repeatCount="indefinite"/>
        </circle>
        <g opacity="0.6">
            <circle cx="-30" cy="-30" r="4" fill="#feca57">
                <animate attributeName="r" values="4;6;4" dur="2s" repeatCount="indefinite"/>
            </circle>
            <circle cx="30" cy="-30" r="3" fill="#fd79a8">
                <animate attributeName="r" values="3;5;3" dur="2.5s" repeatCount="indefinite"/>
            </circle>
            <circle cx="30" cy="30" r="4" fill="#a29bfe">
                <animate attributeName="r" values="4;6;4" dur="1.8s" repeatCount="indefinite"/>
            </circle>
        </g>
        <path d="M -20 20 L -10 30 L 10 30 L 20 20" stroke="url(#techGradient)" stroke-width="2" fill="none">
            <animate attributeName="stroke-opacity" values="0.5;1;0.5" dur="2s" repeatCount="indefinite"/>
        </path>
    </g>
    <circle cx="100" cy="100" r="85" fill="none" stroke="url(#techGradient)" stroke-width="1" opacity="0.3" stroke-dasharray="6,6">
        <animate attributeName="stroke-dashoffset" values="0;12" dur="3s" repeatCount="indefinite"/>
    </circle>
</svg>